<svg xmlns="http://www.w3.org/2000/svg" width="445" height="181" viewBox="0 0 445 181" fill="none">
<path opacity="0.8" d="M145.844 82.1218L153.763 26.3845L98.0259 34.3035L90.1069 90.0409L145.844 82.1218Z" fill="#A295AE"/>
<path opacity="0.8" d="M34.3189 97.9436L26.3999 153.681L82.1372 145.762L90.0562 90.0246L34.3189 97.9436Z" fill="#5D6F6D"/>
<path opacity="0.8" d="M82.1372 34.3775L26.3999 26.4585L34.3189 82.1958L90.0562 90.1148L82.1372 34.3775Z" fill="#8CD592"/>
<path opacity="0.8" d="M97.9607 145.768L153.698 153.688L145.779 97.9502L90.0417 90.0312L97.9607 145.768Z" fill="#665E74"/>
<path opacity="0.8" d="M56.2787 135.016L90.0913 180.027L123.904 135.016L90.0913 90.0037L56.2787 135.016Z" fill="#3C3647"/>
<path opacity="0.8" d="M134.988 123.731L180 89.9185L134.988 56.1058L89.9763 89.9185L134.988 123.731Z" fill="#837193"/>
<path opacity="0.8" d="M123.822 45.0118L90.0095 0L56.1969 45.0118L90.0095 90.0237L123.822 45.0118Z" fill="#A2F4AC"/>
<path opacity="0.8" d="M45.0118 56.257L0 90.0696L45.0118 123.882L90.0237 90.0696L45.0118 56.257Z" fill="#7EA685"/>
<path d="M111.403 90.0138L90 68.6111L68.5972 90.0138L90 111.417L111.403 90.0138Z" fill="#3C3647"/>
<path opacity="0.98" d="M284.231 59L283.748 60.128C282.558 62.9057 281.254 66.0223 279.838 69.4784L279.837 69.4804L279.836 69.4824C278.478 72.8786 277.034 76.4449 275.506 80.181L275.505 80.1842L275.503 80.1874C274.031 83.9251 272.53 87.7477 271.001 91.6551C269.473 95.5032 267.946 99.2946 266.418 103.029L266.416 103.033L266.415 103.036C264.944 106.77 263.501 110.334 262.087 113.728L262.086 113.732L262.084 113.735C260.726 117.129 259.454 120.212 258.267 122.982L257.96 123.698H262.649L262.781 123.38C264.254 119.81 265.812 115.957 267.455 111.822C269.055 107.793 270.685 103.618 272.34 99.3202H295.93C297.585 103.618 299.215 107.793 300.815 111.822L300.816 111.825L300.817 111.828C302.516 115.961 304.102 119.812 305.575 123.38L305.705 123.698H306.049H310.394L310.088 122.982C308.901 120.211 307.6 117.128 306.186 113.735L306.184 113.731C306.184 113.729 306.183 113.729 306.183 113.728C304.825 110.333 303.382 106.769 301.855 103.036L301.852 103.029C300.381 99.2945 298.882 95.503 297.354 91.6551L297.352 91.6527C295.823 87.7441 294.293 83.9204 292.764 80.1814L292.767 80.1874C291.293 76.4473 289.848 72.8769 288.431 69.476C287.073 66.0245 285.827 62.9107 284.695 60.1364L284.231 59ZM418.771 59L418.288 60.128C417.097 62.9057 415.794 66.0223 414.378 69.4784L414.377 69.4804L414.376 69.4824C413.018 72.8786 411.574 76.4449 410.046 80.181L410.044 80.1842L410.043 80.1874C408.57 83.9251 407.07 87.7477 405.541 91.6551C404.013 95.5032 402.485 99.2946 400.957 103.029L400.956 103.033L400.955 103.036C399.484 106.77 398.041 110.334 396.627 113.728L396.625 113.732L396.624 113.735C395.266 117.129 393.994 120.212 392.806 122.982L392.5 123.698H397.189L397.32 123.38C398.793 119.81 400.351 115.957 401.994 111.822C403.595 107.793 405.225 103.618 406.879 99.3202H430.47C432.124 103.618 433.754 107.793 435.355 111.822L435.356 111.825L435.357 111.828C437.056 115.961 438.642 119.812 440.114 123.38L440.245 123.698H440.588H444.934L444.628 122.982C443.439 120.209 442.138 117.125 440.723 113.728L440.725 113.735C439.366 110.338 437.923 106.772 436.394 103.036L436.392 103.029C434.921 99.2945 433.421 95.5031 431.893 91.6551L431.892 91.6527C430.364 87.7461 428.835 83.9246 427.306 80.1874C425.834 76.4507 424.39 72.8837 422.975 69.4857L422.971 69.476C421.613 66.0246 420.367 62.9107 419.235 60.1364L418.771 59ZM369.353 61.9369L369.353 61.9401C365.042 61.9401 360.978 62.7465 357.176 64.3593C353.38 65.9695 350.038 68.2168 347.161 71.094C344.339 73.9156 342.093 77.257 340.427 81.1057C338.757 84.9654 337.922 89.1161 337.922 93.5406C337.922 97.8445 338.64 101.874 340.079 105.616L340.081 105.619L340.083 105.622C341.578 109.361 343.683 112.622 346.393 115.389L346.395 115.391L346.397 115.393C349.163 118.159 352.449 120.349 356.242 121.958H356.243H356.244C360.108 123.573 364.425 124.376 369.183 124.376C372.282 124.376 375.243 124.003 378.063 123.255L378.068 123.253L378.073 123.251C380.883 122.448 383.442 121.385 385.747 120.06L386.004 119.912V96.0833H385.491H367.82V100.168H381.665V117.005C379.8 117.989 377.812 118.754 375.69 119.285C373.463 119.785 371.238 120.036 369.013 120.036C364.995 120.036 361.358 119.339 358.087 117.953C354.861 116.562 352.09 114.677 349.761 112.292H349.76C347.43 109.85 345.629 107.024 344.35 103.801C343.128 100.578 342.516 97.1337 342.516 93.4548C342.516 89.7252 343.211 86.2306 344.599 82.9543C344.599 82.9543 344.599 82.9544 344.599 82.9523C346.047 79.6113 347.991 76.725 350.435 74.2812L350.437 74.2792L350.439 74.2772C352.885 71.7757 355.714 69.8343 358.939 68.4443L358.942 68.4423L358.945 68.4403C362.163 66.9977 365.598 66.2769 369.268 66.2769C371.77 66.2769 374.244 66.6104 376.692 67.2782H376.694H376.695C379.204 67.9472 381.454 68.8645 383.449 70.0282L383.881 70.2804L386.204 66.5195L385.75 66.254C383.386 64.8704 380.794 63.8056 377.978 63.0585C375.161 62.311 372.284 61.9369 369.353 61.9369ZM221.934 62.6198V67.0436H238.412V123.697H242.921V67.0436H259.569V62.6198H259.056H221.934ZM320.283 62.6198V63.1331V123.697H324.792V62.6198H320.283ZM284.212 69.5101L284.501 70.4412L284.509 70.4621C286.037 74.1962 287.65 78.2424 289.347 82.6002L289.349 82.6038L289.351 82.6074C291.013 86.6824 292.675 90.906 294.338 95.2356H273.933C275.644 90.9044 277.313 86.6793 278.922 82.6022L278.922 82.6002H278.923C280.62 78.2442 282.26 74.2 283.843 70.4681L283.845 70.4633L283.847 70.4585C283.946 70.213 284.074 69.876 284.212 69.5101ZM418.751 69.5101L419.04 70.4408L419.049 70.4617C420.576 74.1958 422.189 78.242 423.887 82.5998L423.888 82.6034L423.89 82.607C425.553 86.682 427.215 90.9056 428.878 95.2352H408.472C410.183 90.904 411.852 86.6789 413.461 82.6018L413.462 82.5998H413.462C415.159 78.2438 416.8 74.1995 418.383 70.4677L418.385 70.4629L418.387 70.4581C418.485 70.2127 418.613 69.8757 418.751 69.5101Z" fill="#474354"/>
</svg>