<?xml version="1.0" encoding="UTF-8" standalone="no"?>
<svg xmlns="http://www.w3.org/2000/svg" xmlns:xlink="http://www.w3.org/1999/xlink" version="1.1" x="0" y="0" preserveAspectRatio="xMinYMin meet" viewBox="0 0 1145.8 535.80001">
  <g id="Layer_1" fill="#00000" transform="translate(-3,-1.8)">
    <path d="M 881.099,2.2 C 1029,2.2 1148.8,122 1148.8,269.9 1148.8,417.7 1029,537.6 881.1,537.6 H 291 c -21.1,0 -38.2,-17.1 -38.2,-38.2 0,-21.1 17.1,-38.2 38.2,-38.2 h 137.5 c 21,0 38.1,-17.1 38.1,-38.2 0,-21.1 -17.1,-38.2 -38.1,-38.2 h -30.601 c -21.099,0 -38.199,-17.1 -38.199,-38.2 0,-21.1 17.1,-38.2 38.2,-38.2 h 91.703 c 21.215,-0.059 37.67,-17.35 38.197,-38.2 0,-21.1 -17.1,-38.2 -38.2,-38.2 H 168.7 c -21.1,0 -38.2,-17.1 -38.2,-38.2 0,-21.1 17.1,-38.2 38.2,-38.2 h 236.804 c 21.214,-0.059 37.669,-17.35 38.196,-38.2 0,-21.1 -17.1,-38.2 -38.2,-38.2 H 352.1 C 331,79.2 313.9,62.1 313.9,41 313.9,19.9 331,1.8 352.1,1.8 Z M 838.3,91.4 v 0 c -82.2,0 -148.7,66.6 -148.7,148.7 v 59.5 c 0,82.2 66.5,148.7 148.7,148.7 82.1,0 148.7,-66.5 148.7,-148.7 V 240.1 C 987,158 920.4,91.4 838.3,91.4 Z M 889.1,232 c 19.8,0 35.9,16.1 35.9,35.9 v 4.6 c 0,19.8 -16.1,35.9 -35.9,35.9 H 777.5 c -19.8,0 -35.9,-16.1 -35.9,-35.9 v -4.6 c 0,-19.8 16.1,-35.9 35.9,-35.9 z" id="path2" />
    <path d="m 171,461.2 c 19.9,0 35.9,16 35.9,35.9 v 4.6 c 0,19.8 -16,35.9 -35.9,35.9 H 38.9 C 19.1,537.6 3,521.5 3,501.7 v -4.6 c 0,-19.9 16.1,-35.9 35.9,-35.9 z" id="path4" />
    <path d="M 232.2,2.8 C 252,2.8 268,18.9 268,38.7 v 4.7 c 0,19.8 -16,35.8 -35.8,35.8 H 84.7 C 64.9,79.2 48.8,63.2 48.8,43.4 V 38.7 C 48.8,18.9 64.9,2.8 84.7,2.8 Z" fill="#00000" id="path6"  />
    <path d="m 278,308.4 c 19.8,0 35.9,16.1 35.9,35.9 v 4.6 c 0,19.8 -16.1,35.9 -35.9,35.9 h -81 c -19.8,0 -35.9,-16.1 -35.9,-35.9 v -4.6 c 0,-19.8 16.1,-35.9 35.9,-35.9 z" id="path8" />
  </g>
</svg>
